<svg xmlns="http://www.w3.org/2000/svg" width="90.01" height="65.562" viewBox="0 0 90.01 65.562">
  <g id="Groupe_3756" data-name="Groupe 3756" transform="translate(-80.001 -12)">
    <g id="Groupe_637" data-name="Groupe 637" transform="translate(80.01 12)">
      <path id="Tracé_1112" data-name="Tracé 1112" d="M148.978,36.6a8.848,8.848,0,0,0-3.978.948c.116,7.24,6.708,12.49,10.061,14.132a8.752,8.752,0,0,0-6.083-15.08" transform="translate(-111.462 -28.135)" fill="#d52819"/>
      <path id="Tracé_1113" data-name="Tracé 1113" d="M217.618,9.206V0H209.8a20.5,20.5,0,0,1,7.818,9.206" transform="translate(-161.274)" fill="#d52819"/>
      <path id="Tracé_1114" data-name="Tracé 1114" d="M163.8,18.8a17.123,17.123,0,0,0,2.961-4.58A18.14,18.14,0,0,0,154.275,0H145V6.754a11.456,11.456,0,0,1,3.978-.74,11.184,11.184,0,0,1,9.506,17.093,20.855,20.855,0,0,0,5.32-4.3" transform="translate(-111.462)" fill="#d52819"/>
    </g>
    <g id="Groupe_3755" data-name="Groupe 3755">
      <g id="Groupe_638" data-name="Groupe 638" transform="translate(80.01 12)">
        <path id="Tracé_1115" data-name="Tracé 1115" d="M9,150.274a3.372,3.372,0,0,1-3.562,3.7,3.48,3.48,0,0,1-3.562-3.7c0-2.359,1.365-3.84,3.585-3.84A3.5,3.5,0,0,1,9,150.274M5.459,144.7A5.328,5.328,0,0,0,0,150.274a5.181,5.181,0,0,0,5.435,5.482A5.529,5.529,0,1,0,5.459,144.7" transform="translate(0 -111.231)" fill="#fff"/>
        <path id="Tracé_1116" data-name="Tracé 1116" d="M68.169,153.364a3.4,3.4,0,0,1-2.521.948H63.474v-6.985h2.174a3.267,3.267,0,0,1,3.446,3.4,3.583,3.583,0,0,1-.925,2.637M65.648,145.5H61.6v10.64h4.048a5.252,5.252,0,0,0,3.863-1.457,5.512,5.512,0,0,0,1.457-3.932,5.046,5.046,0,0,0-5.32-5.25" transform="translate(-47.352 -111.846)" fill="#fff"/>
        <path id="Tracé_1117" data-name="Tracé 1117" d="M123.369,153.364a3.4,3.4,0,0,1-2.521.948h-2.174v-6.985h2.174a3.267,3.267,0,0,1,3.446,3.4,3.584,3.584,0,0,1-.925,2.637m-2.521-7.864H116.8v10.64h4.048a5.252,5.252,0,0,0,3.863-1.457,5.512,5.512,0,0,0,1.457-3.932,5.046,5.046,0,0,0-5.32-5.25" transform="translate(-89.785 -111.846)" fill="#fff"/>
        <path id="Tracé_1118" data-name="Tracé 1118" d="M178.3,150.274a3.372,3.372,0,0,1-3.562,3.7,3.48,3.48,0,0,1-3.562-3.7c0-2.359,1.365-3.84,3.585-3.84a3.5,3.5,0,0,1,3.539,3.84m-3.539-5.574a5.328,5.328,0,0,0-5.459,5.574,5.437,5.437,0,1,0,5.459-5.574" transform="translate(-130.141 -111.231)" fill="#fff"/>
        <path id="Tracé_1119" data-name="Tracé 1119" d="M251.7,149.825h-3.03v-2.591h3.007c1.157,0,1.781.694,1.781,1.388,0,.995-.948,1.2-1.758,1.2m-3.03,1.712h3.03c.81,0,2.082.416,2.082,1.5,0,1.272-1.735,1.342-2.082,1.342h-3v-2.845Zm5.412-.9a2.2,2.2,0,0,0,1.249-2.059c0-1.943-1.365-3.076-3.654-3.076H246.8v10.64h4.88c2.591,0,3.978-1.064,3.978-3.076a2.767,2.767,0,0,0-1.573-2.429" transform="translate(-189.716 -111.846)" fill="#fff"/>
        <path id="Tracé_1120" data-name="Tracé 1120" d="M306.97,150.033H301.7V145.5h-1.9v10.64h1.9v-4.325h5.274v4.325h1.874V145.5H306.97Z" transform="translate(-230.457 -111.846)" fill="#fff"/>
        <path id="Tracé_1121" data-name="Tracé 1121" d="M356.3,145.6v10.617h1.9v-4.071h5.412v-1.758H358.2V147.45h5.69V145.6Z" transform="translate(-273.889 -111.923)" fill="#fff"/>
      </g>
      <path id="Tracé_1511" data-name="Tracé 1511" d="M11.169,5.282a1.719,1.719,0,0,0,.556-.082,1.108,1.108,0,0,0,.4-.232.963.963,0,0,0,.244-.359,1.255,1.255,0,0,0,.082-.462,1.038,1.038,0,0,0-.318-.8,1.385,1.385,0,0,0-.965-.293H10.3V5.282Zm0-2.882a3.139,3.139,0,0,1,.936.125,1.812,1.812,0,0,1,.659.353,1.4,1.4,0,0,1,.388.552,1.953,1.953,0,0,1,.127.718,1.872,1.872,0,0,1-.136.723,1.549,1.549,0,0,1-.4.567,1.838,1.838,0,0,1-.661.369,2.9,2.9,0,0,1-.911.131H10.3V8H9.473V2.4ZM16.4,5.1a1.851,1.851,0,0,0,.564-.078,1.144,1.144,0,0,0,.408-.22.9.9,0,0,0,.246-.339,1.122,1.122,0,0,0,.082-.435.865.865,0,0,0-.318-.729,1.545,1.545,0,0,0-.954-.246h-.784V5.1ZM19.016,8h-.741a.346.346,0,0,1-.324-.175L16.567,5.882a.413.413,0,0,0-.144-.138.52.52,0,0,0-.234-.041h-.542V8h-.831V2.4h1.615a3.451,3.451,0,0,1,.934.111,1.814,1.814,0,0,1,.647.316,1.256,1.256,0,0,1,.378.493,1.638,1.638,0,0,1,.123.647,1.659,1.659,0,0,1-.09.55,1.442,1.442,0,0,1-.263.462,1.659,1.659,0,0,1-.423.353,2.075,2.075,0,0,1-.566.226.857.857,0,0,1,.269.261Zm2.176,0h-.835V2.4h.835Zm6.622-5.6L25.537,8h-.745L22.515,2.4h.663a.275.275,0,0,1,.177.055.342.342,0,0,1,.1.14L24.972,6.4q.055.14.107.308t.1.351q.039-.183.086-.351t.1-.308l1.509-3.806a.3.3,0,0,1,.1-.136.273.273,0,0,1,.177-.058Zm3.869,3.514-.831-2.172a4.842,4.842,0,0,1-.179-.562q-.043.168-.088.312t-.088.257l-.827,2.165ZM33.325,8h-.64a.284.284,0,0,1-.179-.055.307.307,0,0,1-.1-.14l-.5-1.3H29.441l-.5,1.3a.316.316,0,0,1-.1.135.275.275,0,0,1-.179.06h-.64l2.231-5.6h.839Zm4.59-4.906H36.137V8H35.31V3.094H33.524V2.4h4.391Zm4.906,4.232,0,.675H39.347V2.4h3.471v.675H40.182V4.849H42.3V5.5H40.182V7.325ZM54.288,2.4,52.541,8h-.749L50.427,3.846a1.96,1.96,0,0,1-.082-.3q-.043.179-.082.3L48.882,8h-.745L46.39,2.4h.694a.308.308,0,0,1,.183.053.245.245,0,0,1,.1.142l1.1,3.748q.031.109.057.238l.053.269q.027-.14.057-.269a2.077,2.077,0,0,1,.068-.238l1.264-3.748a.27.27,0,0,1,.1-.136.289.289,0,0,1,.181-.058h.238a.284.284,0,0,1,.179.055.307.307,0,0,1,.1.14l1.26,3.748a4.266,4.266,0,0,1,.125.488q.047-.269.1-.488L53.36,2.595a.245.245,0,0,1,.1-.136A.3.3,0,0,1,53.64,2.4Zm4.895,4.926,0,.675H55.707V2.4h3.471v.675H56.542V4.849h2.122V5.5H56.542V7.325Zm4.625-1.412-.831-2.172A4.843,4.843,0,0,1,62.8,3.18q-.043.168-.088.312t-.088.257L61.8,5.913ZM65.45,8h-.64a.284.284,0,0,1-.179-.055.307.307,0,0,1-.1-.14l-.5-1.3H61.565l-.5,1.3a.316.316,0,0,1-.1.135.275.275,0,0,1-.179.06h-.64L62.38,2.4h.838Zm4.528-.7V8H66.772V2.4H67.6V7.3Zm4.528-4.208H72.727V8H71.9V3.094H70.114V2.4h4.391ZM80.523,2.4V8h-.831V5.477H76.771V8h-.835V2.4h.835V4.872h2.921V2.4Zm-59.894,9V17H19.9V13.014q0-.09.006-.191t.014-.207l-1.864,3.42a.318.318,0,0,1-.3.191h-.117a.31.31,0,0,1-.3-.191l-1.9-3.432a3.856,3.856,0,0,1,.023.41V17H14.74V11.4h.616a.528.528,0,0,1,.17.021.242.242,0,0,1,.115.119l1.872,3.354a2.336,2.336,0,0,1,.1.214q.047.113.09.226a3.752,3.752,0,0,1,.191-.445l1.837-3.35a.227.227,0,0,1,.111-.119.528.528,0,0,1,.17-.021Zm4.984,3.514-.831-2.172a4.842,4.842,0,0,1-.179-.562q-.043.168-.088.312t-.088.257L23.6,14.913ZM27.255,17h-.64a.284.284,0,0,1-.179-.055.307.307,0,0,1-.1-.14l-.5-1.3H23.371l-.5,1.3a.316.316,0,0,1-.1.135.275.275,0,0,1-.179.06h-.64l2.231-5.6h.839Zm5.909-5.6V17h-.421a.335.335,0,0,1-.162-.035.48.48,0,0,1-.131-.113l-3.163-4.091q.008.105.014.207t.006.191V17h-.729V11.4h.429a.406.406,0,0,1,.164.025.357.357,0,0,1,.121.115l3.171,4.1q-.012-.113-.018-.22t-.006-.2V11.4Zm4.984,3.514-.831-2.172a4.843,4.843,0,0,1-.179-.562q-.043.168-.088.312t-.088.257l-.827,2.165ZM39.79,17h-.64a.284.284,0,0,1-.179-.055.307.307,0,0,1-.1-.14l-.5-1.3H35.905l-.5,1.3a.316.316,0,0,1-.1.135.275.275,0,0,1-.179.06h-.64l2.231-5.6h.838Zm5.741-2.726v2.184a3.181,3.181,0,0,1-.9.454,3.483,3.483,0,0,1-1.045.15,3.4,3.4,0,0,1-1.227-.211,2.7,2.7,0,0,1-.934-.589,2.58,2.58,0,0,1-.595-.9,3.117,3.117,0,0,1-.209-1.158,3.252,3.252,0,0,1,.2-1.164,2.548,2.548,0,0,1,.575-.9,2.6,2.6,0,0,1,.907-.585,3.253,3.253,0,0,1,1.2-.209,3.576,3.576,0,0,1,.622.051,2.923,2.923,0,0,1,.532.144,2.592,2.592,0,0,1,.454.224,2.7,2.7,0,0,1,.388.294l-.238.374a.237.237,0,0,1-.144.113.245.245,0,0,1-.195-.043q-.1-.059-.224-.137a1.7,1.7,0,0,0-.292-.144A2.467,2.467,0,0,0,44,12.1a2.668,2.668,0,0,0-.534-.047,2.194,2.194,0,0,0-.831.15,1.747,1.747,0,0,0-.632.431,1.922,1.922,0,0,0-.4.677,2.642,2.642,0,0,0-.14.887,2.687,2.687,0,0,0,.148.922,1.941,1.941,0,0,0,.419.69,1.777,1.777,0,0,0,.659.431,2.416,2.416,0,0,0,.868.148,2.663,2.663,0,0,0,.349-.021,2.517,2.517,0,0,0,.31-.06,2.124,2.124,0,0,0,.287-.1q.138-.058.275-.129V14.91h-.827a.175.175,0,0,1-.127-.047.155.155,0,0,1-.049-.117v-.472Zm5.218,2.051,0,.675H47.274V11.4h3.471v.675H48.108v1.774H50.23V14.5H48.108v1.825ZM58.287,11.4V17h-.725V13.014q0-.09.006-.191t.014-.207l-1.864,3.42a.318.318,0,0,1-.3.191H55.3a.31.31,0,0,1-.3-.191L53.1,12.6a3.855,3.855,0,0,1,.023.41V17H52.4V11.4h.616a.528.528,0,0,1,.17.021.242.242,0,0,1,.115.119l1.872,3.354a2.336,2.336,0,0,1,.1.214q.047.113.09.226a3.751,3.751,0,0,1,.191-.445l1.837-3.35a.227.227,0,0,1,.111-.119.528.528,0,0,1,.17-.021Zm5.483,4.926,0,.675H60.3V11.4h3.471v.675H61.13v1.774h2.122V14.5H61.13v1.825ZM70.007,11.4V17h-.421a.335.335,0,0,1-.162-.035.48.48,0,0,1-.131-.113L66.13,12.761q.008.105.014.207t.006.191V17H65.42V11.4h.429a.406.406,0,0,1,.164.025.357.357,0,0,1,.121.115l3.171,4.1q-.012-.113-.018-.22t-.006-.2V11.4Zm5.827.694H74.055V17h-.827V12.094H71.442V11.4h4.391Z" transform="translate(80.006 60)" fill="#fff" stroke="rgba(0,0,0,0)" stroke-width="1"/>
    </g>
  </g>
</svg>
