<svg xmlns="http://www.w3.org/2000/svg" width="90.01" height="56.252" viewBox="0 0 90.01 56.252">
  <g id="logoOddo" transform="translate(0.036 -0.017)">
    <path id="Tracé_1826" data-name="Tracé 1826" d="M133.2,168.5a8.832,8.832,0,0,1,11.929,3.875,9.016,9.016,0,0,1-1.748,10.485c-3.419-1.672-10.105-6.99-10.181-14.36Zm15.348,7.978a11.349,11.349,0,0,0-11.321-11.321,10.53,10.53,0,0,0-4.027.76v-6.838h9.421a18.214,18.214,0,0,1,12.613,14.436,18.517,18.517,0,0,1-2.963,4.635,21.751,21.751,0,0,1-5.395,4.407,12.624,12.624,0,0,0,1.672-6.078ZM148.4,159h7.9v9.346A20.661,20.661,0,0,0,148.4,159Z" transform="translate(-99.777 -158.983)" fill="#d52819"/>
    <path id="Tracé_1827" data-name="Tracé 1827" d="M123.574,226.7a.561.561,0,0,1-.3-.076c-.075,0-.15-.076-.225-.152l-.975-1.064a3.316,3.316,0,0,1-2.1-.076,6.25,6.25,0,0,1-.9-.608,6.343,6.343,0,0,1-.6-.912,3.194,3.194,0,0,1,0-2.355,1.939,1.939,0,0,1,.6-.912,2.7,2.7,0,0,1,.9-.608,2.889,2.889,0,0,1,2.25,0,6.25,6.25,0,0,1,.9.608,3.821,3.821,0,0,1,.6.912,3.083,3.083,0,0,1,.225,1.14,2.617,2.617,0,0,1-.075.76l-.225.684a1.363,1.363,0,0,1-.375.532,3.275,3.275,0,0,1-.525.456l1.425,1.6h-.6Zm-3.225-6a1.168,1.168,0,0,0-.6.456,3.093,3.093,0,0,0-.375.684,3.751,3.751,0,0,0,0,1.824,3.092,3.092,0,0,0,.375.684,4.166,4.166,0,0,0,.6.456,1.9,1.9,0,0,0,1.575,0,1.168,1.168,0,0,0,.6-.456,3.092,3.092,0,0,0,.375-.684,3.751,3.751,0,0,0,0-1.824,3.092,3.092,0,0,0-.375-.684,4.167,4.167,0,0,0-.6-.456A1.9,1.9,0,0,0,120.349,220.7Zm6.3,4.787a2.49,2.49,0,0,1-.75-.456,1.581,1.581,0,0,1-.45-.76,3.859,3.859,0,0,1-.15-.912v-3.5h.825v3.5a1.5,1.5,0,0,0,.075.608,1.911,1.911,0,0,0,.3.532,1.568,1.568,0,0,0,.45.3,1.637,1.637,0,0,0,1.2,0,1.568,1.568,0,0,0,.45-.3,1.229,1.229,0,0,0,.3-.532,1.911,1.911,0,0,0,.075-.608v-3.5h.825v3.5a3.859,3.859,0,0,1-.15.912,2.114,2.114,0,0,1-1.2,1.216,2.453,2.453,0,0,1-1.8,0Zm36,.076v-5.7h3.525v.684H163.55v1.824h2.175v.684H163.55v1.824h2.625v.684H162.65Zm-4.95,0v-5.7h3.525v.684H158.6v1.824h2.175v.684H158.6v1.824h2.625v.684H157.7Zm-4.125,0-2.325-5.7h.675c.075,0,.15,0,.15.076.075,0,.075.076.075.152l1.5,3.875c0,.076.075.228.075.3a3.328,3.328,0,0,1,.075.38c0-.152.075-.228.075-.38,0-.076.075-.228.075-.3l1.5-3.875c0-.076.075-.076.075-.152a.231.231,0,0,1,.15-.076h.675l-2.325,5.7Zm-4.2,0v-5.7h.825v5.7h-.825Zm-1.875,0a.388.388,0,0,1-.3-.152l-1.425-1.975c0-.076-.075-.076-.15-.152-.075,0-.15-.076-.225-.076h-.525v2.355h-.825v-5.7h1.65a2.356,2.356,0,0,1,.975.152,2.647,2.647,0,0,1,.675.3,1.362,1.362,0,0,1,.375.532,1.7,1.7,0,0,1,0,1.216,1.591,1.591,0,0,1-.3.456,2,2,0,0,1-.45.38,5.13,5.13,0,0,1-.6.228c.075.076.225.152.3.3l1.575,2.2-.75-.076Zm-2.625-2.963h.75a1.252,1.252,0,0,0,.975-.3.647.647,0,0,0,.225-.38,1.2,1.2,0,0,0-.225-1.216,1.443,1.443,0,0,0-.975-.228H144.8l.075,2.127Zm-6,2.963v-5.7H140.6a2.19,2.19,0,0,1,.975.152,3.029,3.029,0,0,1,.675.38,2.309,2.309,0,0,1,.375.532,2.273,2.273,0,0,1,.15.76,2.731,2.731,0,0,1-.15.76,1.658,1.658,0,0,1-.375.608,3.029,3.029,0,0,1-.675.38,3.72,3.72,0,0,1-.9.152h-.9v2.127l-.9-.152Zm.825-2.735h.9a1.1,1.1,0,0,0,.525-.076,1.636,1.636,0,0,0,.375-.228.648.648,0,0,0,.225-.38.975.975,0,0,0,.075-.456,1.152,1.152,0,0,0-.3-.836,1.494,1.494,0,0,0-.975-.3h-.9l.075,2.279Zm-8.1,2.735v-5.7h3.525v.684H132.5v1.824h2.175v.684H132.5v1.824h2.7v.684h-3.6Zm-15.076,0h-.15c-.075,0-.075-.076-.15-.152L113,221.227v4.407h-.75V219.86h.6c.075,0,.075.076.15.152l3.225,4.179V219.86h.75v5.7h-.45Zm-6,0c-.075,0-.15,0-.15-.076-.075,0-.075-.076-.075-.152l-.525-1.368H107.3l-.525,1.292c0,.076-.075.076-.075.152a.231.231,0,0,1-.15.076h-.675l2.25-5.7h.825l2.25,5.7Zm-2.1-4.559c0,.076-.075.152-.075.228l-.825,2.2h2.025l-.825-2.2a1.446,1.446,0,0,1-.15-.608c-.075.152-.075.228-.15.38Zm-7.35,4.559v-5.7h1.875a3.606,3.606,0,0,1,.9.076,1.5,1.5,0,0,1,.6.3,2.009,2.009,0,0,1,.375.456,1.807,1.807,0,0,1,.15.608.575.575,0,0,1-.075.38,1.015,1.015,0,0,1-.225.38c-.075.152-.225.228-.3.3l-.45.228a1.249,1.249,0,0,1,1.2,1.292,2.243,2.243,0,0,1-.15.684,1.362,1.362,0,0,1-.375.532.922.922,0,0,1-.6.3,3.153,3.153,0,0,1-.825.152h-2.1Zm.825-.684h1.2a1.261,1.261,0,0,0,.525-.076c.15-.076.3-.076.375-.228.075-.076.15-.228.225-.3a.693.693,0,0,0,.075-.38.83.83,0,0,0-.3-.684,1.339,1.339,0,0,0-.9-.228h-1.2Zm0-2.507h.975a1.764,1.764,0,0,0,.9-.228,1.054,1.054,0,0,0,.075-1.368,1.977,1.977,0,0,0-.9-.228h-.975l-.075,1.824Zm57.077-2.963.9-1.064.075-.076a.074.074,0,0,0,.075-.076h1.125l-1.275,1.14a.261.261,0,0,1-.15.076h-.75Zm-31.426-10.181a5.345,5.345,0,0,1,5.1-5.622h.375a5.219,5.219,0,0,1,5.4,5.622c0,2.735-1.65,5.547-5.4,5.547A5.22,5.22,0,0,1,127.549,209.223Zm1.875.076c.075,1.748.975,3.723,3.525,3.723,2.625,0,3.525-1.975,3.525-3.723,0-2.811-1.875-3.875-3.525-3.875C130.849,205.348,129.424,206.867,129.424,209.3ZM88.4,209.223a5.391,5.391,0,0,1,5.1-5.622h.375a5.219,5.219,0,0,1,5.4,5.622c0,2.735-1.65,5.547-5.4,5.547A5.22,5.22,0,0,1,88.4,209.223Zm1.875.076c.075,1.748.975,3.723,3.525,3.723,2.625,0,3.525-1.975,3.525-3.723,0-2.811-1.875-3.875-3.525-3.875C91.7,205.348,90.273,206.867,90.273,209.3Zm80.553,5.243V203.752H178.4v1.9h-5.7v2.963h5.4v1.824h-5.4v4.1h-1.875Zm-5.85,0v-4.407h-5.25v4.407H157.85V203.752h1.875v4.559h5.25v-4.559h1.875v10.789Zm-19.5,0V203.752h4.875c2.25,0,3.675,1.14,3.675,3.115a2.165,2.165,0,0,1-1.275,2.051,2.65,2.65,0,0,1,1.575,2.431c0,2.051-1.35,3.115-3.975,3.115h-4.875Zm1.875-1.748h3c.375,0,2.1-.076,2.1-1.368,0-1.14-1.275-1.52-2.1-1.52h-3Zm0-4.635h3c.825,0,1.8-.228,1.8-1.216a1.6,1.6,0,0,0-1.8-1.444h-3Zm-31.876,6.382V203.752h4.05a5.121,5.121,0,0,1,5.325,4.863v.456a5.778,5.778,0,0,1-1.425,4.027,5.592,5.592,0,0,1-3.9,1.52h-4.05Zm1.875-1.824h2.175A3.051,3.051,0,0,0,122,211.73a3.888,3.888,0,0,0,.975-2.659,3.291,3.291,0,0,0-3.15-3.419h-2.475v7.066Zm-14.7,1.824V203.752h4.05a5.121,5.121,0,0,1,5.325,4.863v.456A5.778,5.778,0,0,1,110.6,213.1a5.592,5.592,0,0,1-3.9,1.52h-4.05Zm1.875-1.824H106.7a3.051,3.051,0,0,0,2.475-.988,3.888,3.888,0,0,0,.975-2.659,3.291,3.291,0,0,0-3.15-3.419h-2.475Z" transform="translate(-88.427 -170.429)" fill="#fff"/>
  </g>
</svg>
