<svg xmlns="http://www.w3.org/2000/svg" width="91" height="53.5" viewBox="0 0 91 53.5">
  <g id="Groupe_10" data-name="Groupe 10" transform="translate(-754.197 -424.764)">
    <g id="Groupe_6" data-name="Groupe 6" transform="translate(789.067 424.764)">
      <path id="Tracé_24" data-name="Tracé 24" d="M252.908,145.339a8.245,8.245,0,0,0-3.766.907c.108,6.845,6.349,11.82,9.522,13.39a8.3,8.3,0,0,0-5.756-14.3" transform="translate(-249.135 -137.328)" fill="#e74334"/>
      <path id="Tracé_25" data-name="Tracé 25" d="M321.359,117.492v-8.728h-7.4a19.506,19.506,0,0,1,7.4,8.728" transform="translate(-299.758 -108.764)" fill="#e74334"/>
      <path id="Tracé_26" data-name="Tracé 26" d="M266.914,126.568a16.159,16.159,0,0,0,2.806-4.343A17.136,17.136,0,0,0,257.9,108.765h-8.791v6.406a10.6,10.6,0,0,1,12.783,15.508,20.843,20.843,0,0,0,5.02-4.111" transform="translate(-249.111 -108.765)" fill="#e74334"/>
    </g>
    <g id="Groupe_11" data-name="Groupe 11" transform="translate(754.697 456.145)">
      <g id="Groupe_8" data-name="Groupe 8" transform="translate(0 15.125)">
        <path id="Union_2" data-name="Union 2" d="M21.2,6.494a.768.768,0,0,1-.256-.039.52.52,0,0,1-.208-.143l-.9-.983a3,3,0,0,1-1.967-.067,2.417,2.417,0,0,1-.836-.564,2.573,2.573,0,0,1-.54-.864,3.025,3.025,0,0,1-.193-1.1,3.029,3.029,0,0,1,.193-1.1,2.569,2.569,0,0,1,.54-.866A2.441,2.441,0,0,1,17.869.2a2.977,2.977,0,0,1,2.16,0,2.462,2.462,0,0,1,.836.566,2.537,2.537,0,0,1,.541.866,3.067,3.067,0,0,1,.191,1.1,3.2,3.2,0,0,1-.076.709,2.9,2.9,0,0,1-.217.628,2.432,2.432,0,0,1-.814.945l1.363,1.478ZM18.188.827a1.622,1.622,0,0,0-.582.406,1.806,1.806,0,0,0-.371.644,2.628,2.628,0,0,0-.13.856,2.625,2.625,0,0,0,.13.859,1.806,1.806,0,0,0,.371.642,1.6,1.6,0,0,0,.582.4,2.137,2.137,0,0,0,1.519,0,1.58,1.58,0,0,0,.579-.4,1.827,1.827,0,0,0,.37-.642,2.636,2.636,0,0,0,.13-.859,2.639,2.639,0,0,0-.13-.856,1.827,1.827,0,0,0-.37-.644,1.6,1.6,0,0,0-.579-.406,2.112,2.112,0,0,0-1.519,0Zm5.93,4.48a1.959,1.959,0,0,1-.676-.454,1.981,1.981,0,0,1-.427-.689,2.467,2.467,0,0,1-.148-.867V.06h.791V3.292a1.881,1.881,0,0,0,.091.6,1.325,1.325,0,0,0,.265.467,1.194,1.194,0,0,0,.427.3,1.568,1.568,0,0,0,1.144,0,1.19,1.19,0,0,0,.427-.3,1.351,1.351,0,0,0,.267-.465,1.826,1.826,0,0,0,.093-.6V.06h.787V3.3a2.467,2.467,0,0,1-.148.867,1.983,1.983,0,0,1-.427.689,1.96,1.96,0,0,1-.676.454,2.528,2.528,0,0,1-1.791,0Zm37.463-.041a2.307,2.307,0,0,1-.8-.562,2.527,2.527,0,0,1-.514-.864,3.221,3.221,0,0,1-.182-1.106,3.085,3.085,0,0,1,.191-1.106,2.534,2.534,0,0,1,.537-.864A2.415,2.415,0,0,1,61.637.2,2.729,2.729,0,0,1,62.7,0a2.589,2.589,0,0,1,1.01.186,2.549,2.549,0,0,1,.769.5l-.26.369a.221.221,0,0,1-.065.067.182.182,0,0,1-.1.026.292.292,0,0,1-.166-.071A2.414,2.414,0,0,0,63.64.914a1.975,1.975,0,0,0-.381-.158,1.932,1.932,0,0,0-.565-.07,1.856,1.856,0,0,0-.728.139,1.618,1.618,0,0,0-.57.4,1.831,1.831,0,0,0-.371.644,2.63,2.63,0,0,0-.132.862,2.535,2.535,0,0,0,.137.868,1.9,1.9,0,0,0,.379.644,1.6,1.6,0,0,0,.569.4,1.8,1.8,0,0,0,.705.138,2.816,2.816,0,0,0,.414-.028,1.758,1.758,0,0,0,.338-.084,1.475,1.475,0,0,0,.292-.144A1.939,1.939,0,0,0,64,4.319a.3.3,0,0,1,.063-.043.154.154,0,0,1,.07-.017.153.153,0,0,1,.115.052l.312.343a2.226,2.226,0,0,1-.8.6,2.731,2.731,0,0,1-1.131.213A2.643,2.643,0,0,1,61.582,5.265Zm21.078.093a1.7,1.7,0,0,1-.574-.307,1.375,1.375,0,0,1-.371-.482,1.476,1.476,0,0,1-.132-.633,1.324,1.324,0,0,1,.258-.838,1.45,1.45,0,0,1,.756-.481,1.253,1.253,0,0,1-.62-.467,1.3,1.3,0,0,1-.208-.739A1.326,1.326,0,0,1,82.216.406a1.553,1.553,0,0,1,.514-.3,2.1,2.1,0,0,1,1.33,0,1.554,1.554,0,0,1,.514.3,1.325,1.325,0,0,1,.448,1.005,1.3,1.3,0,0,1-.208.739,1.25,1.25,0,0,1-.62.467,1.449,1.449,0,0,1,.756.481,1.323,1.323,0,0,1,.258.838,1.479,1.479,0,0,1-.132.633,1.372,1.372,0,0,1-.371.482,1.706,1.706,0,0,1-.574.307,2.557,2.557,0,0,1-1.471,0Zm.323-2.374a.941.941,0,0,0-.338.179.837.837,0,0,0-.228.309,1.1,1.1,0,0,0-.084.449,1.052,1.052,0,0,0,.07.391.832.832,0,0,0,.208.307.953.953,0,0,0,.334.2,1.463,1.463,0,0,0,.9,0,.954.954,0,0,0,.334-.2.834.834,0,0,0,.208-.307,1.056,1.056,0,0,0,.07-.391,1.084,1.084,0,0,0-.085-.449.86.86,0,0,0-.23-.309.938.938,0,0,0-.338-.179,1.493,1.493,0,0,0-.821,0ZM82.992.627A.812.812,0,0,0,82.7.816a.777.777,0,0,0-.173.275.959.959,0,0,0-.058.335,1.172,1.172,0,0,0,.05.341.808.808,0,0,0,.16.294.79.79,0,0,0,.284.207,1.2,1.2,0,0,0,.852,0,.788.788,0,0,0,.286-.207.8.8,0,0,0,.16-.294,1.171,1.171,0,0,0,.05-.341.964.964,0,0,0-.058-.335.782.782,0,0,0-.173-.275A.816.816,0,0,0,83.8.627a1.215,1.215,0,0,0-.806,0ZM48.285,5.416a2.465,2.465,0,0,1-.457-.142,2.27,2.27,0,0,1-.4-.22,1.977,1.977,0,0,1-.336-.288l.227-.38a.3.3,0,0,1,.08-.074.191.191,0,0,1,.106-.03.305.305,0,0,1,.18.082q.1.082.253.18a1.929,1.929,0,0,0,.36.181,1.406,1.406,0,0,0,.511.082,1.36,1.36,0,0,0,.438-.065.894.894,0,0,0,.325-.186.809.809,0,0,0,.2-.292.99.99,0,0,0,.07-.38.642.642,0,0,0-.108-.384.878.878,0,0,0-.286-.249,2.091,2.091,0,0,0-.4-.171l-.464-.147a4.59,4.59,0,0,1-.465-.177,1.521,1.521,0,0,1-.405-.263,1.19,1.19,0,0,1-.286-.406,1.493,1.493,0,0,1-.108-.6,1.431,1.431,0,0,1,.111-.555,1.411,1.411,0,0,1,.325-.475,1.6,1.6,0,0,1,.526-.331A1.906,1.906,0,0,1,48.991,0a2.309,2.309,0,0,1,.827.143,1.923,1.923,0,0,1,.655.411L50.28.931a.307.307,0,0,1-.078.093.171.171,0,0,1-.1.03.27.27,0,0,1-.152-.062q-.085-.061-.214-.138a1.662,1.662,0,0,0-.306-.138A1.317,1.317,0,0,0,49,.655a1.246,1.246,0,0,0-.411.062.858.858,0,0,0-.3.168.7.7,0,0,0-.18.249.783.783,0,0,0-.062.311.567.567,0,0,0,.11.357.949.949,0,0,0,.288.242,2.269,2.269,0,0,0,.405.175l.464.154a4.677,4.677,0,0,1,.465.185,1.638,1.638,0,0,1,.4.262,1.206,1.206,0,0,1,.288.387,1.291,1.291,0,0,1,.11.56,1.8,1.8,0,0,1-.121.663,1.554,1.554,0,0,1-.351.54,1.637,1.637,0,0,1-.567.363,2.082,2.082,0,0,1-.763.132A2.452,2.452,0,0,1,48.285,5.416Zm-6.623,0a2.471,2.471,0,0,1-.457-.142,2.27,2.27,0,0,1-.4-.22,1.977,1.977,0,0,1-.336-.288l.227-.38a.3.3,0,0,1,.08-.074.191.191,0,0,1,.106-.03.305.305,0,0,1,.18.082q.1.082.253.18a1.929,1.929,0,0,0,.36.181,1.406,1.406,0,0,0,.511.082,1.36,1.36,0,0,0,.438-.065.893.893,0,0,0,.325-.186.809.809,0,0,0,.2-.292.99.99,0,0,0,.07-.38.64.64,0,0,0-.108-.384.88.88,0,0,0-.286-.249,2.086,2.086,0,0,0-.4-.171l-.464-.147a4.551,4.551,0,0,1-.464-.177,1.515,1.515,0,0,1-.405-.263,1.188,1.188,0,0,1-.286-.406,1.493,1.493,0,0,1-.107-.6A1.43,1.43,0,0,1,40.8.931a1.408,1.408,0,0,1,.325-.475,1.6,1.6,0,0,1,.526-.331A1.908,1.908,0,0,1,42.368,0a2.309,2.309,0,0,1,.827.143,1.921,1.921,0,0,1,.655.411l-.193.376a.308.308,0,0,1-.078.093.171.171,0,0,1-.1.03.272.272,0,0,1-.152-.062c-.057-.041-.128-.087-.214-.138A1.644,1.644,0,0,0,42.8.717a1.315,1.315,0,0,0-.427-.062,1.245,1.245,0,0,0-.41.062.863.863,0,0,0-.3.168.7.7,0,0,0-.18.249.783.783,0,0,0-.062.311.566.566,0,0,0,.11.357.949.949,0,0,0,.288.242,2.275,2.275,0,0,0,.405.175l.465.154a4.692,4.692,0,0,1,.464.185,1.643,1.643,0,0,1,.4.262,1.212,1.212,0,0,1,.288.387,1.292,1.292,0,0,1,.11.56,1.8,1.8,0,0,1-.121.663,1.551,1.551,0,0,1-.351.54,1.635,1.635,0,0,1-.566.363,2.084,2.084,0,0,1-.763.132A2.449,2.449,0,0,1,41.662,5.416ZM87.294,5.3a1.643,1.643,0,0,1-.615-.5,2.526,2.526,0,0,1-.408-.851,4.393,4.393,0,0,1-.148-1.214,4.417,4.417,0,0,1,.148-1.216,2.522,2.522,0,0,1,.408-.853,1.643,1.643,0,0,1,.615-.5,1.858,1.858,0,0,1,1.527,0,1.655,1.655,0,0,1,.617.5,2.529,2.529,0,0,1,.413.853A4.367,4.367,0,0,1,90,2.733a4.344,4.344,0,0,1-.15,1.214,2.534,2.534,0,0,1-.413.851,1.655,1.655,0,0,1-.617.5,1.86,1.86,0,0,1-1.527,0Zm.314-4.58a.978.978,0,0,0-.381.352,2.022,2.022,0,0,0-.262.654,4.44,4.44,0,0,0-.1,1.009,4.441,4.441,0,0,0,.1,1.009,2,2,0,0,0,.262.652.981.981,0,0,0,.381.35,1.021,1.021,0,0,0,.9,0,.982.982,0,0,0,.381-.35,2.029,2.029,0,0,0,.264-.652,4.373,4.373,0,0,0,.1-1.009,4.373,4.373,0,0,0-.1-1.009,2.057,2.057,0,0,0-.264-.654.979.979,0,0,0-.381-.352,1.021,1.021,0,0,0-.9,0ZM77.433,5.407l2.2-4.323q.056-.1.112-.192A1.232,1.232,0,0,1,79.863.73H77.137a.178.178,0,0,1-.175-.175V.06H80.6V.384a.682.682,0,0,1-.032.229,1.623,1.623,0,0,1-.061.151L78.348,5.15a.521.521,0,0,1-.145.183.387.387,0,0,1-.249.075Zm-4.61,0V4.852h1.129v-3.5q0-.168.011-.346l-.906.771a.257.257,0,0,1-.1.052.27.27,0,0,1-.1,0,.193.193,0,0,1-.082-.032.3.3,0,0,1-.058-.05L72.49,1.43l1.6-1.381h.591v4.8h1.029v.555Zm-14.487,0a.319.319,0,0,1-.154-.034.455.455,0,0,1-.124-.108L55.046,1.359c.005.067.009.132.013.2s.006.125.006.182V5.407H54.37V.06h.409a.389.389,0,0,1,.156.024.348.348,0,0,1,.115.11L58.07,4.1c-.007-.072-.013-.142-.017-.21s-.006-.132-.006-.192V.06h.691V5.407Zm-6.427,0V.06h.8V5.407Zm-23.149,0V.06h.8V5.407Zm-14.208,0a.32.32,0,0,1-.154-.034.458.458,0,0,1-.124-.108L11.262,1.359c.005.067.009.132.013.2s.005.125.005.182V5.407h-.695V.06H11a.389.389,0,0,1,.156.024.349.349,0,0,1,.115.11l3.02,3.91c-.007-.072-.013-.142-.017-.21s-.006-.132-.006-.192V.06h.691V5.407Zm-5.591,0a.268.268,0,0,1-.171-.052.291.291,0,0,1-.1-.134L8.224,3.98H5.873L5.4,5.22a.3.3,0,0,1-.1.128.261.261,0,0,1-.171.058H4.524L6.649.06h.8L9.572,5.407Zm-2-4.3q-.043.138-.084.246L6.092,3.414H8.008L7.217,1.34A4.6,4.6,0,0,1,7.046.8Q7.005.964,6.963,1.1ZM0,5.407V.06H1.738a3.333,3.333,0,0,1,.86.1,1.618,1.618,0,0,1,.589.279,1.108,1.108,0,0,1,.34.441,1.487,1.487,0,0,1,.11.586,1.174,1.174,0,0,1-.059.372,1.08,1.08,0,0,1-.182.333,1.31,1.31,0,0,1-.308.277,1.8,1.8,0,0,1-.438.2q1.163.231,1.163,1.218a1.5,1.5,0,0,1-.126.624,1.359,1.359,0,0,1-.368.486,1.7,1.7,0,0,1-.594.317,2.656,2.656,0,0,1-.8.112Zm.791-.629H1.906a1.638,1.638,0,0,0,.514-.071.961.961,0,0,0,.35-.194.736.736,0,0,0,.2-.292,1.049,1.049,0,0,0,.063-.371.774.774,0,0,0-.275-.627,1.313,1.313,0,0,0-.851-.229H.791Zm0-2.346H1.7A1.336,1.336,0,0,0,2.569,2.2a.788.788,0,0,0,.284-.639A.788.788,0,0,0,2.582.89,1.383,1.383,0,0,0,1.738.681H.791ZM65.707,5.406V.06h3.306V.7H66.5V2.4h2.02V3.02H66.5V4.762h2.515l0,.644Zm-26.548,0a.33.33,0,0,1-.308-.167L37.532,3.385a.4.4,0,0,0-.137-.132.5.5,0,0,0-.223-.039h-.516V5.406h-.791V.059H37.4a3.271,3.271,0,0,1,.89.106,1.726,1.726,0,0,1,.617.3,1.2,1.2,0,0,1,.36.471,1.566,1.566,0,0,1,.117.618,1.591,1.591,0,0,1-.085.525,1.377,1.377,0,0,1-.251.441,1.584,1.584,0,0,1-.4.337,1.987,1.987,0,0,1-.539.216.816.816,0,0,1,.256.25l1.5,2.081Zm-2.5-2.77h.721a1.745,1.745,0,0,0,.536-.075,1.086,1.086,0,0,0,.388-.21.86.86,0,0,0,.234-.324,1.074,1.074,0,0,0,.078-.415.826.826,0,0,0-.3-.7A1.469,1.469,0,0,0,37.4.681h-.747Zm-5.427,2.77V.06h3.306V.7H32.023V2.4h2.021V3.02H32.023V4.762h2.515l0,.644Z" fill="#293641" stroke="rgba(0,0,0,0)" stroke-miterlimit="10" stroke-width="1"/>
      </g>
      <g id="Groupe_7" data-name="Groupe 7" transform="translate(2.668 0)">
        <path id="Union_1" data-name="Union 1" d="M36.986,5.274A5.048,5.048,0,0,1,42.15,0a4.909,4.909,0,0,1,5.105,5.259,4.9,4.9,0,0,1-5.134,5.2A4.9,4.9,0,0,1,36.986,5.274Zm1.772.014A3.3,3.3,0,0,0,42.121,8.8a3.2,3.2,0,0,0,3.363-3.512,3.31,3.31,0,0,0-3.337-3.639C40.058,1.648,38.759,3.042,38.759,5.287ZM0,5.274A5.048,5.048,0,0,1,5.163,0a4.909,4.909,0,0,1,5.105,5.259,4.9,4.9,0,0,1-5.133,5.2A4.9,4.9,0,0,1,0,5.274Zm1.772.014A3.3,3.3,0,0,0,5.135,8.8,3.2,3.2,0,0,0,8.5,5.287,3.311,3.311,0,0,0,5.161,1.648C3.072,1.648,1.772,3.042,1.772,5.287Zm11.686,4.964V.183h3.828A4.787,4.787,0,0,1,22.32,5.131a5.2,5.2,0,0,1-1.38,3.731,4.975,4.975,0,0,1-3.656,1.389Zm1.771-1.733h2.057a3.169,3.169,0,0,0,2.371-.9,3.451,3.451,0,0,0,.893-2.5A3.1,3.1,0,0,0,17.285,1.9H15.228Zm57.048,1.733v-4.1H67.292v4.1H65.508V.183h1.784V4.477h4.985V.183h1.77V10.251Zm-46.752,0V.183h3.828a4.787,4.787,0,0,1,5.035,4.948,5.2,5.2,0,0,1-1.379,3.732,4.977,4.977,0,0,1-3.656,1.389Zm1.77-1.733h2.058a3.169,3.169,0,0,0,2.371-.9,3.453,3.453,0,0,0,.893-2.5A3.1,3.1,0,0,0,29.352,1.9H27.295Zm50.546,1.733V.2H85V1.944h-5.38V4.731h5.112V6.407H79.625v3.844Zm-23.922,0V.183h4.614c2.158,0,3.448,1.093,3.448,2.922A2.091,2.091,0,0,1,60.8,5.049a2.579,2.579,0,0,1,1.494,2.28c0,1.912-1.3,2.922-3.757,2.922Zm1.771-1.676h2.843c.329,0,1.972-.061,1.972-1.259,0-1.041-1.2-1.429-1.959-1.429H55.689Zm0-4.309h2.857c.759,0,1.663-.2,1.663-1.132,0-.654-.575-1.317-1.677-1.317H55.689Z" fill="#293641" stroke="rgba(0,0,0,0)" stroke-miterlimit="10" stroke-width="1"/>
      </g>
    </g>
  </g>
</svg>
