<svg xmlns="http://www.w3.org/2000/svg" width="13.037" height="16" viewBox="0 0 13.037 16">
  <g id="applestore" transform="translate(-0.056)">
    <g id="Groupe_503" data-name="Groupe 503" transform="translate(0.056 4.697)">
      <path id="Tracé_1106" data-name="Tracé 1106" d="M9.685,5.592c-1.321-.13-2.434.649-3.06.649s-1.6-.649-2.643-.649A3.977,3.977,0,0,0,.712,7.473C-.679,9.743.365,13.116,1.756,15c.7.908,1.461,1.946,2.5,1.881s1.391-.584,2.643-.584,1.6.584,2.643.584c1.113,0,1.808-.908,2.434-1.816a7.286,7.286,0,0,0,1.113-2.14,3.372,3.372,0,0,1-2.156-3.048,3.513,3.513,0,0,1,1.739-2.854A3.73,3.73,0,0,0,9.685,5.592" transform="translate(-0.056 -5.578)" fill="#fff"/>
    </g>
    <g id="Groupe_504" data-name="Groupe 504" transform="translate(6.034)">
      <path id="Tracé_1107" data-name="Tracé 1107" d="M12.161,3.116A4.489,4.489,0,0,0,13.172,0a4.278,4.278,0,0,0-2.863,1.432A4.7,4.7,0,0,0,9.3,4.463a3.722,3.722,0,0,0,2.863-1.347" transform="translate(-9.289)" fill="#fff"/>
    </g>
  </g>
</svg>
