<svg xmlns="http://www.w3.org/2000/svg" width="13" height="13" viewBox="0 0 13 13">
  <path id="call_FILL0_wght500_GRAD0_opsz48" d="M17.794,18.7a9.659,9.659,0,0,1-4.342-1.074,14.9,14.9,0,0,1-6.678-6.686A9.679,9.679,0,0,1,5.7,6.606.88.88,0,0,1,6.606,5.7H9.092a.8.8,0,0,1,.533.2.922.922,0,0,1,.3.533l.48,2.184a1.271,1.271,0,0,1-.009.542.792.792,0,0,1-.24.4L8.364,11.33a15.131,15.131,0,0,0,2.158,2.762,11.716,11.716,0,0,0,2.673,2l1.723-1.758a1.152,1.152,0,0,1,.471-.32.934.934,0,0,1,.542-.018l2.025.462a.924.924,0,0,1,.542.32.9.9,0,0,1,.2.586v2.433a.887.887,0,0,1-.258.639.864.864,0,0,1-.648.266ZM7.76,10.229,9.2,8.808l-.408-1.9H6.925a5.406,5.406,0,0,0,.186,1.474A13.247,13.247,0,0,0,7.76,10.229Zm6.571,6.447a8.416,8.416,0,0,0,3.161.8V15.592l-1.776-.373ZM7.76,10.229ZM14.331,16.675Z" transform="translate(-5.7 -5.7)" fill="#fff"/>
</svg>
