<svg xmlns="http://www.w3.org/2000/svg" width="14.246" height="16" viewBox="0 0 14.246 16">
  <g id="googleplay" transform="translate(0 0.001)">
    <path id="Tracé_1108" data-name="Tracé 1108" d="M.786,18.856a1.5,1.5,0,0,0-.286.89V32.824a1.508,1.508,0,0,0,.248.838l6.866-7.423Zm0,0" transform="translate(-0.5 -18.286)" fill="#fff"/>
    <path id="Tracé_1109" data-name="Tracé 1109" d="M41.826,7.04l2.227-2.32L36.226.193a1.41,1.41,0,0,0-1.1-.141Zm0,0" transform="translate(-34.082)" fill="#fff"/>
    <path id="Tracé_1110" data-name="Tracé 1110" d="M39.654,276.18l-6.763,7.056a1.406,1.406,0,0,0,.448.074,1.424,1.424,0,0,0,.714-.194l7.886-4.553Zm0,0" transform="translate(-31.912 -267.311)" fill="#fff"/>
    <path id="Tracé_1111" data-name="Tracé 1111" d="M282.134,172.716l-2.289-1.322-2.408,2.511,2.464,2.57,2.233-1.289a1.426,1.426,0,0,0,0-2.471Zm0,0" transform="translate(-268.602 -165.954)" fill="#fff"/>
  </g>
</svg>
