<svg xmlns="http://www.w3.org/2000/svg" width="20" height="20" viewBox="0 0 20 20">
  <path id="linkedin" d="M24.111,21.889a2.1,2.1,0,0,1-2.222,2.222A2.137,2.137,0,0,1,19.667,22a2.253,2.253,0,0,1,2.222-2.333A2.16,2.16,0,0,1,24.111,21.889ZM19.667,39.667h4.444V25.222H19.667ZM34.778,25.444a4.866,4.866,0,0,0-4.222,2.222h-.111l-.222-1.889h-4c0,1.222.111,2.667.111,4.333v9.556h4.444V31.778a3.425,3.425,0,0,1,.111-1.111A2.39,2.39,0,0,1,33,28.889c1.556,0,2.222,1.333,2.222,3.111v7.667h4.444V31.444C39.667,27.333,37.556,25.444,34.778,25.444Z" transform="translate(-19.667 -19.667)" fill="#fff"/>
</svg>
