<svg xmlns="http://www.w3.org/2000/svg" width="16" height="12.001" viewBox="0 0 16 12.001">
  <path id="download" d="M2.5,12A2.5,2.5,0,0,1,0,9.5v-1a.5.5,0,1,1,1,0v1A1.5,1.5,0,0,0,2.5,11h11A1.5,1.5,0,0,0,15,9.5v-1a.5.5,0,1,1,1,0v1A2.5,2.5,0,0,1,13.5,12ZM7.823,8.969h0l-.014-.005a.484.484,0,0,1-.166-.11l-3-3a.5.5,0,1,1,.707-.707L7.5,7.294V.5a.5.5,0,0,1,1,0V7.293l2.147-2.147a.5.5,0,0,1,.707.707l-3,3a.508.508,0,0,1-.161.108h0l-.018.006A.47.47,0,0,1,8,9H8A.492.492,0,0,1,7.823,8.969Z" fill="#fff"/>
</svg>
