<svg xmlns="http://www.w3.org/2000/svg" width="20" height="17.75" viewBox="0 0 20 17.75">
  <path id="Tracé_45" data-name="Tracé 45" d="M17.64-42.194a4.447,4.447,0,0,0,1.81-2.475,8.171,8.171,0,0,1-2.611,1.089A3.936,3.936,0,0,0,13.846-45a4.3,4.3,0,0,0-4.1,4.481,4.946,4.946,0,0,0,.1,1.016A11.348,11.348,0,0,1,1.39-44.177a4.777,4.777,0,0,0-.553,2.252A4.57,4.57,0,0,0,2.663-38.2,3.836,3.836,0,0,1,.8-38.76v.062A4.413,4.413,0,0,0,4.095-34.3a3.828,3.828,0,0,1-1.084.148,3.188,3.188,0,0,1-.767-.08,4.147,4.147,0,0,0,3.832,3.111,7.774,7.774,0,0,1-5.1,1.918A7.532,7.532,0,0,1,0-29.271,10.871,10.871,0,0,0,6.29-27.25c7.546,0,11.676-6.83,11.676-12.749,0-.19,0-.382-.014-.574A9.019,9.019,0,0,0,20-42.9,7.544,7.544,0,0,1,17.64-42.194Z" transform="translate(0 45)" fill="#fff" fill-rule="evenodd"/>
</svg>
