<svg xmlns="http://www.w3.org/2000/svg" width="20" height="13" viewBox="0 0 20 13">
  <path id="Tracé_47" data-name="Tracé 47" d="M8.334-2.024V-7.376l5,2.686ZM19.8-8.4a3.822,3.822,0,0,0-.795-1.834,2.989,2.989,0,0,0-2-.783c-2.8-.187-7-.187-7-.187H10s-4.2,0-7,.187a2.99,2.99,0,0,0-2,.783A3.819,3.819,0,0,0,.2-8.4,25.874,25.874,0,0,0,0-5.4V-4A25.861,25.861,0,0,0,.2-1.011,3.819,3.819,0,0,0,.994.824a3.561,3.561,0,0,0,2.206.79C4.8,1.756,10,1.8,10,1.8s4.2-.006,7-.193a2.993,2.993,0,0,0,2-.783A3.822,3.822,0,0,0,19.8-1.011,25.861,25.861,0,0,0,20-4V-5.4A25.874,25.874,0,0,0,19.8-8.4Z" transform="translate(0 11.2)" fill="#fff" fill-rule="evenodd"/>
</svg>
